<svg t="1619507375202" class="icon" viewBox="0 0 1024 1024" version="1.1" xmlns="http://www.w3.org/2000/svg" p-id="2010" width="200" height="200"><path d="M512 0C230.4 0 0 230.4 0 512s230.4 512 512 512 512-230.4 512-512c0-286.72-230.4-512-512-512z" fill="#A5D16C" p-id="2011"></path><path d="M788.48 373.76l-322.56 327.68c-15.36 15.36-40.96 15.36-51.2 0L271.36 563.2c-15.36-15.36-15.36-35.84-5.12-51.2 10.24-20.48 40.96-20.48 56.32-5.12l102.4 102.4c5.12 5.12 20.48 5.12 25.6 0l281.6-281.6c15.36-15.36 35.84-15.36 51.2-5.12l5.12 5.12c15.36 10.24 15.36 30.72 0 46.08z" fill="#FFFFFF" p-id="2012"></path></svg>